<svg width="512" height="512" viewBox="0 0 512 512" xmlns="http://www.w3.org/2000/svg">
<defs>
  <radialGradient id="bgGrad" cx="50%" cy="50%" r="50%">
    <stop offset="0%" stop-color="#0A1428"/>
    <stop offset="60%" stop-color="#04070E"/>
    <stop offset="100%" stop-color="#020408"/>
  </radialGradient>
  <radialGradient id="glowC" cx="50%" cy="50%" r="50%">
    <stop offset="0%" stop-color="#E8C96A" stop-opacity="0.22"/>
    <stop offset="100%" stop-color="#E8C96A" stop-opacity="0"/>
  </radialGradient>
  <radialGradient id="starG" cx="50%" cy="50%" r="50%">
    <stop offset="0%" stop-color="#E8C96A" stop-opacity="0.55"/>
    <stop offset="100%" stop-color="#E8C96A" stop-opacity="0"/>
  </radialGradient>
  <clipPath id="clip"><circle cx="256" cy="256" r="248"/></clipPath>
</defs>
<circle cx="256" cy="256" r="256" fill="#020408"/>
<circle cx="256" cy="256" r="248" fill="url(#bgGrad)"/>
<ellipse cx="210" cy="196" rx="130" ry="80" fill="#1A2A60" opacity="0.18" clip-path="url(#clip)"/>
<ellipse cx="316" cy="316" rx="110" ry="70" fill="#2A1A50" opacity="0.14" clip-path="url(#clip)"/>
<g clip-path="url(#clip)" fill="#ffffff">
  <circle cx="88" cy="74" r="1.1" opacity="0.7"/>
  <circle cx="152" cy="58" r="0.8" opacity="0.5"/>
  <circle cx="234" cy="48" r="1.3" opacity="0.8"/>
  <circle cx="340" cy="66" r="0.9" opacity="0.6"/>
  <circle cx="400" cy="88" r="1.0" opacity="0.7"/>
  <circle cx="444" cy="60" r="0.7" opacity="0.5"/>
  <circle cx="66" cy="144" r="0.9" opacity="0.6"/>
  <circle cx="120" cy="182" r="1.2" opacity="0.75"/>
  <circle cx="370" cy="122" r="1.0" opacity="0.65"/>
  <circle cx="424" cy="152" r="0.8" opacity="0.5"/>
  <circle cx="464" cy="212" r="1.1" opacity="0.7"/>
  <circle cx="58" cy="242" r="1.0" opacity="0.6"/>
  <circle cx="74" cy="326" r="1.0" opacity="0.65"/>
  <circle cx="448" cy="274" r="0.9" opacity="0.6"/>
  <circle cx="432" cy="348" r="1.2" opacity="0.7"/>
  <circle cx="98" cy="402" r="0.8" opacity="0.5"/>
  <circle cx="166" cy="432" r="1.0" opacity="0.65"/>
  <circle cx="348" cy="424" r="0.9" opacity="0.6"/>
  <circle cx="408" cy="402" r="1.1" opacity="0.7"/>
  <circle cx="296" cy="74" r="1.0" opacity="0.65"/>
  <circle cx="468" cy="318" r="0.8" opacity="0.5"/>
  <circle cx="188" cy="120" r="0.7" opacity="0.5"/>
  <circle cx="50" cy="290" r="1.0" opacity="0.6"/>
</g>
<g clip-path="url(#clip)" fill="#E8C96A">
  <circle cx="108" cy="108" r="1.2" opacity="0.5"/>
  <circle cx="392" cy="98" r="1.0" opacity="0.45"/>
  <circle cx="468" cy="256" r="1.3" opacity="0.5"/>
  <circle cx="46" cy="340" r="1.1" opacity="0.45"/>
  <circle cx="378" cy="408" r="1.0" opacity="0.5"/>
  <circle cx="136" cy="394" r="1.2" opacity="0.45"/>
  <circle cx="448" cy="136" r="0.9" opacity="0.4"/>
</g>
<circle cx="256" cy="226" r="94" fill="url(#glowC)"/>
<g transform="translate(256,226)">
  <circle r="58" fill="url(#starG)"/>
  <polygon points="0,-48 6,-6 48,0 6,6 0,48 -6,6 -48,0 -6,-6" fill="#E8C96A" opacity="0.95"/>
  <polygon points="0,-29 4,-4 29,0 4,4 0,29 -4,4 -29,0 -4,-4" fill="#F5DFA0" opacity="0.6"/>
  <circle r="5" fill="#FFFBE8" opacity="0.9"/>
  <line x1="0" y1="-70" x2="0" y2="-53" stroke="#E8C96A" stroke-width="1.2" stroke-linecap="round" opacity="0.5"/>
  <line x1="0" y1="53" x2="0" y2="70" stroke="#E8C96A" stroke-width="1.2" stroke-linecap="round" opacity="0.5"/>
  <line x1="-70" y1="0" x2="-53" y2="0" stroke="#E8C96A" stroke-width="1.2" stroke-linecap="round" opacity="0.5"/>
  <line x1="53" y1="0" x2="70" y2="0" stroke="#E8C96A" stroke-width="1.2" stroke-linecap="round" opacity="0.5"/>
</g>
<text x="256" y="318" text-anchor="middle" font-family="Georgia,serif" font-size="42" font-weight="400" fill="#E8C96A" letter-spacing="5">JOHN STAR</text>
<line x1="148" y1="332" x2="364" y2="332" stroke="#E8C96A" stroke-width="0.7" opacity="0.4"/>
<text x="256" y="349" text-anchor="middle" font-family="Georgia,serif" font-size="10" fill="#E8C96A" opacity="0.5" letter-spacing="3">✦</text>
<text x="256" y="370" text-anchor="middle" font-family="Arial,sans-serif" font-size="14" font-weight="300" fill="#C8B47A" letter-spacing="9" opacity="0.85">EXPERIENCE</text>
<circle cx="256" cy="256" r="238" fill="none" stroke="#E8C96A" stroke-width="0.7" opacity="0.2"/>
<circle cx="256" cy="256" r="250" fill="none" stroke="#E8C96A" stroke-width="0.4" opacity="0.1"/>
<g stroke="#E8C96A" stroke-width="1" opacity="0.25">
  <line x1="256" y1="8" x2="256" y2="20"/>
  <line x1="256" y1="492" x2="256" y2="504"/>
  <line x1="8" y1="256" x2="20" y2="256"/>
  <line x1="492" y1="256" x2="504" y2="256"/>
</g>
</svg>
